<mxfile host="app.diagrams.net" modified="2023-10-07T15:18:09.473Z" agent="Mozilla/5.0 (Windows NT 10.0; Win64; x64) AppleWebKit/537.36 (KHTML, like Gecko) Chrome/117.0.0.0 Safari/537.36 Edg/117.0.2045.47" etag="lwQ8X5M3mcIqr75X5Ucy" version="22.0.4" type="device">
  <diagram name="Page-1" id="cdLqz5mmYnn_omf3L6MC">
    <mxGraphModel dx="1642" dy="915" grid="1" gridSize="10" guides="1" tooltips="1" connect="1" arrows="1" fold="1" page="1" pageScale="1" pageWidth="850" pageHeight="1100" math="0" shadow="0">
      <root>
        <mxCell id="0" />
        <mxCell id="1" parent="0" />
        <mxCell id="S6ICJZYOOdPEVtP5LKpZ-1" value="Взаимодействие. Программное средство для визуальной расстановки объектов в помещении" style="shape=umlFrame;whiteSpace=wrap;html=1;pointerEvents=0;width=270;height=70;" vertex="1" parent="1">
          <mxGeometry x="120" y="40" width="990" height="450" as="geometry" />
        </mxCell>
        <mxCell id="S6ICJZYOOdPEVtP5LKpZ-6" style="edgeStyle=orthogonalEdgeStyle;rounded=0;orthogonalLoop=1;jettySize=auto;html=1;exitX=1;exitY=0.5;exitDx=0;exitDy=0;" edge="1" parent="1" source="S6ICJZYOOdPEVtP5LKpZ-3" target="S6ICJZYOOdPEVtP5LKpZ-4">
          <mxGeometry relative="1" as="geometry" />
        </mxCell>
        <mxCell id="S6ICJZYOOdPEVtP5LKpZ-3" value="" style="ellipse;whiteSpace=wrap;html=1;aspect=fixed;fillColor=#000000;" vertex="1" parent="1">
          <mxGeometry x="150" y="270" width="50" height="50" as="geometry" />
        </mxCell>
        <mxCell id="S6ICJZYOOdPEVtP5LKpZ-4" value="" style="rhombus;whiteSpace=wrap;html=1;rounded=1;" vertex="1" parent="1">
          <mxGeometry x="260" y="262.5" width="70" height="65" as="geometry" />
        </mxCell>
        <mxCell id="S6ICJZYOOdPEVtP5LKpZ-19" style="edgeStyle=orthogonalEdgeStyle;rounded=0;orthogonalLoop=1;jettySize=auto;html=1;entryX=0;entryY=0.5;entryDx=0;entryDy=0;" edge="1" parent="1" source="S6ICJZYOOdPEVtP5LKpZ-10" target="S6ICJZYOOdPEVtP5LKpZ-18">
          <mxGeometry relative="1" as="geometry" />
        </mxCell>
        <mxCell id="S6ICJZYOOdPEVtP5LKpZ-10" value="Создание нового лэйаута" style="shape=umlFrame;whiteSpace=wrap;html=1;pointerEvents=0;width=150;height=30;" vertex="1" parent="1">
          <mxGeometry x="380" y="190" width="190" height="60" as="geometry" />
        </mxCell>
        <mxCell id="S6ICJZYOOdPEVtP5LKpZ-20" style="edgeStyle=orthogonalEdgeStyle;rounded=0;orthogonalLoop=1;jettySize=auto;html=1;entryX=0;entryY=0.5;entryDx=0;entryDy=0;" edge="1" parent="1" source="S6ICJZYOOdPEVtP5LKpZ-11" target="S6ICJZYOOdPEVtP5LKpZ-18">
          <mxGeometry relative="1" as="geometry" />
        </mxCell>
        <mxCell id="S6ICJZYOOdPEVtP5LKpZ-11" value="Выбор существующего лэйаута" style="shape=umlFrame;whiteSpace=wrap;html=1;pointerEvents=0;width=150;height=40;" vertex="1" parent="1">
          <mxGeometry x="380" y="260" width="190" height="70" as="geometry" />
        </mxCell>
        <mxCell id="S6ICJZYOOdPEVtP5LKpZ-12" style="edgeStyle=orthogonalEdgeStyle;rounded=0;orthogonalLoop=1;jettySize=auto;html=1;entryX=-0.002;entryY=0.366;entryDx=0;entryDy=0;entryPerimeter=0;" edge="1" parent="1" source="S6ICJZYOOdPEVtP5LKpZ-4" target="S6ICJZYOOdPEVtP5LKpZ-10">
          <mxGeometry relative="1" as="geometry" />
        </mxCell>
        <mxCell id="S6ICJZYOOdPEVtP5LKpZ-13" style="edgeStyle=orthogonalEdgeStyle;rounded=0;orthogonalLoop=1;jettySize=auto;html=1;entryX=-0.016;entryY=0.623;entryDx=0;entryDy=0;entryPerimeter=0;" edge="1" parent="1" source="S6ICJZYOOdPEVtP5LKpZ-4" target="S6ICJZYOOdPEVtP5LKpZ-11">
          <mxGeometry relative="1" as="geometry" />
        </mxCell>
        <mxCell id="S6ICJZYOOdPEVtP5LKpZ-17" style="edgeStyle=orthogonalEdgeStyle;rounded=0;orthogonalLoop=1;jettySize=auto;html=1;entryX=0.5;entryY=1;entryDx=0;entryDy=0;exitX=1.014;exitY=0.524;exitDx=0;exitDy=0;exitPerimeter=0;" edge="1" parent="1" source="S6ICJZYOOdPEVtP5LKpZ-15" target="S6ICJZYOOdPEVtP5LKpZ-4">
          <mxGeometry relative="1" as="geometry">
            <Array as="points">
              <mxPoint x="590" y="381" />
              <mxPoint x="590" y="430" />
              <mxPoint x="295" y="430" />
            </Array>
          </mxGeometry>
        </mxCell>
        <mxCell id="S6ICJZYOOdPEVtP5LKpZ-15" value="Удаление лэйаута" style="shape=umlFrame;whiteSpace=wrap;html=1;pointerEvents=0;width=150;height=30;" vertex="1" parent="1">
          <mxGeometry x="380" y="350" width="190" height="60" as="geometry" />
        </mxCell>
        <mxCell id="S6ICJZYOOdPEVtP5LKpZ-16" style="edgeStyle=orthogonalEdgeStyle;rounded=0;orthogonalLoop=1;jettySize=auto;html=1;entryX=-0.004;entryY=0.621;entryDx=0;entryDy=0;entryPerimeter=0;" edge="1" parent="1" source="S6ICJZYOOdPEVtP5LKpZ-4" target="S6ICJZYOOdPEVtP5LKpZ-15">
          <mxGeometry relative="1" as="geometry" />
        </mxCell>
        <mxCell id="S6ICJZYOOdPEVtP5LKpZ-28" style="edgeStyle=orthogonalEdgeStyle;rounded=0;orthogonalLoop=1;jettySize=auto;html=1;exitX=0.5;exitY=0;exitDx=0;exitDy=0;entryX=0.5;entryY=0;entryDx=0;entryDy=0;" edge="1" parent="1" source="S6ICJZYOOdPEVtP5LKpZ-18" target="S6ICJZYOOdPEVtP5LKpZ-4">
          <mxGeometry relative="1" as="geometry">
            <Array as="points">
              <mxPoint x="675" y="180" />
              <mxPoint x="295" y="180" />
            </Array>
          </mxGeometry>
        </mxCell>
        <mxCell id="S6ICJZYOOdPEVtP5LKpZ-18" value="" style="rhombus;whiteSpace=wrap;html=1;rounded=1;" vertex="1" parent="1">
          <mxGeometry x="640" y="220" width="70" height="65" as="geometry" />
        </mxCell>
        <mxCell id="S6ICJZYOOdPEVtP5LKpZ-26" style="edgeStyle=orthogonalEdgeStyle;rounded=0;orthogonalLoop=1;jettySize=auto;html=1;entryX=0.5;entryY=0;entryDx=0;entryDy=0;exitX=1.005;exitY=0.429;exitDx=0;exitDy=0;exitPerimeter=0;" edge="1" parent="1" source="S6ICJZYOOdPEVtP5LKpZ-21" target="S6ICJZYOOdPEVtP5LKpZ-18">
          <mxGeometry relative="1" as="geometry">
            <Array as="points">
              <mxPoint x="950" y="196" />
              <mxPoint x="950" y="80" />
              <mxPoint x="675" y="80" />
            </Array>
          </mxGeometry>
        </mxCell>
        <mxCell id="S6ICJZYOOdPEVtP5LKpZ-21" value="Рисование/кастомизация стены" style="shape=umlFrame;whiteSpace=wrap;html=1;pointerEvents=0;width=150;height=40;" vertex="1" parent="1">
          <mxGeometry x="740" y="170" width="190" height="60" as="geometry" />
        </mxCell>
        <mxCell id="S6ICJZYOOdPEVtP5LKpZ-22" style="edgeStyle=orthogonalEdgeStyle;rounded=0;orthogonalLoop=1;jettySize=auto;html=1;entryX=0.001;entryY=0.555;entryDx=0;entryDy=0;entryPerimeter=0;" edge="1" parent="1" source="S6ICJZYOOdPEVtP5LKpZ-18" target="S6ICJZYOOdPEVtP5LKpZ-21">
          <mxGeometry relative="1" as="geometry" />
        </mxCell>
        <mxCell id="S6ICJZYOOdPEVtP5LKpZ-27" style="edgeStyle=orthogonalEdgeStyle;rounded=0;orthogonalLoop=1;jettySize=auto;html=1;entryX=0.5;entryY=0;entryDx=0;entryDy=0;exitX=1.01;exitY=0.5;exitDx=0;exitDy=0;exitPerimeter=0;" edge="1" parent="1" source="S6ICJZYOOdPEVtP5LKpZ-23" target="S6ICJZYOOdPEVtP5LKpZ-18">
          <mxGeometry relative="1" as="geometry">
            <Array as="points">
              <mxPoint x="940" y="120" />
              <mxPoint x="940" y="70" />
              <mxPoint x="675" y="70" />
            </Array>
          </mxGeometry>
        </mxCell>
        <mxCell id="S6ICJZYOOdPEVtP5LKpZ-23" value="Выбор и/или установка объекта" style="shape=umlFrame;whiteSpace=wrap;html=1;pointerEvents=0;width=130;height=30;" vertex="1" parent="1">
          <mxGeometry x="740" y="90" width="190" height="60" as="geometry" />
        </mxCell>
        <mxCell id="S6ICJZYOOdPEVtP5LKpZ-24" style="edgeStyle=orthogonalEdgeStyle;rounded=0;orthogonalLoop=1;jettySize=auto;html=1;entryX=-0.012;entryY=0.25;entryDx=0;entryDy=0;entryPerimeter=0;" edge="1" parent="1" source="S6ICJZYOOdPEVtP5LKpZ-18" target="S6ICJZYOOdPEVtP5LKpZ-23">
          <mxGeometry relative="1" as="geometry">
            <Array as="points">
              <mxPoint x="720" y="253" />
              <mxPoint x="720" y="105" />
            </Array>
          </mxGeometry>
        </mxCell>
        <mxCell id="S6ICJZYOOdPEVtP5LKpZ-37" style="edgeStyle=orthogonalEdgeStyle;rounded=0;orthogonalLoop=1;jettySize=auto;html=1;entryX=0;entryY=0.5;entryDx=0;entryDy=0;" edge="1" parent="1" source="S6ICJZYOOdPEVtP5LKpZ-29" target="S6ICJZYOOdPEVtP5LKpZ-36">
          <mxGeometry relative="1" as="geometry" />
        </mxCell>
        <mxCell id="S6ICJZYOOdPEVtP5LKpZ-29" value="Оформление заказа" style="shape=umlFrame;whiteSpace=wrap;html=1;pointerEvents=0;width=140;height=30;" vertex="1" parent="1">
          <mxGeometry x="740" y="290" width="190" height="60" as="geometry" />
        </mxCell>
        <mxCell id="S6ICJZYOOdPEVtP5LKpZ-32" style="edgeStyle=orthogonalEdgeStyle;rounded=0;orthogonalLoop=1;jettySize=auto;html=1;exitX=0.5;exitY=1;exitDx=0;exitDy=0;entryX=0;entryY=0.797;entryDx=0;entryDy=0;entryPerimeter=0;" edge="1" parent="1" source="S6ICJZYOOdPEVtP5LKpZ-18" target="S6ICJZYOOdPEVtP5LKpZ-29">
          <mxGeometry relative="1" as="geometry" />
        </mxCell>
        <mxCell id="S6ICJZYOOdPEVtP5LKpZ-36" value="" style="ellipse;whiteSpace=wrap;html=1;aspect=fixed;fillColor=none;" vertex="1" parent="1">
          <mxGeometry x="1000" y="290" width="60" height="60" as="geometry" />
        </mxCell>
        <mxCell id="S6ICJZYOOdPEVtP5LKpZ-35" value="" style="ellipse;whiteSpace=wrap;html=1;aspect=fixed;fillColor=#000000;" vertex="1" parent="1">
          <mxGeometry x="1005" y="295" width="50" height="50" as="geometry" />
        </mxCell>
      </root>
    </mxGraphModel>
  </diagram>
</mxfile>
